<svg version="1.1"
      xmlns="http://www.w3.org/2000/svg"
      xmlns:xlink="http://www.w3.org/1999/xlink"  id="snapshot-03820" width="250" height="250" viewBox="0 0 250 250"><desc>This image was made on Patterninja.com</desc><defs>
<!-- image 91360 -->
<g id="transformed-91360" data-image="91360" transform="translate(139.85205451727649, 124.85205451727646) rotate(355, 54.14794548272352, 54.147945482723536)"><g><svg version="1.1" width="108.29589096544704px" height="108.29589096544707px" viewBox="0 0 108.29589096544704 108.29589096544707"><g id="original-91360"><svg xmlns="http://www.w3.org/2000/svg" fill="#000000" viewBox="0 0 1024 1024" xmlns:xlink="http://www.w3.org/1999/xlink" version="1.1" preserveAspectRatio="xMidYMid meet">
  <path d="M760 380.4l-61.6-61.6-263.2 263.1-109.6-109.5L264 534l171.2 171.2L760 380.4z" fill="rgba(0, 0, 0, 0.5)" stroke="none"/>
</svg>
</g></svg></g></g>
<!-- /image 91360 -->

<!-- image 41618 -->
<g id="transformed-41618" data-image="41618" transform="translate(40.453426594611685, 41.453426594611685) rotate(23, 29.546573405388315, 29.546573405388312)"><g><svg version="1.1" width="59.09314681077663px" height="59.093146810776624px" viewBox="0 0 59.09314681077663 59.093146810776624"><g id="original-41618"><svg xmlns="http://www.w3.org/2000/svg" fill="#000000" viewBox="0 0 973.1 973.1" xmlns:xlink="http://www.w3.org/1999/xlink" version="1.1" preserveAspectRatio="xMidYMid meet">
  <path d="M502.29 788.199h-47c-33.1 0-60 26.9-60 60v64.9c0 33.1 26.9 60 60 60h47c33.101 0 60-26.9 60-60v-64.9c0-33.199-26.899-60-60-60z" fill="rgba(0, 0, 0, 0.5)" stroke="none"/>
  <path d="M170.89 285.8l86.7 10.8c27.5 3.4 53.6-12.4 63.5-38.3 12.5-32.7 29.9-58.5 52.2-77.3 31.601-26.6 70.9-40 117.9-40 48.7 0 87.5 12.8 116.3 38.3 28.8 25.6 43.1 56.2 43.1 92.1 0 25.8-8.1 49.4-24.3 70.8-10.5 13.6-42.8 42.2-96.7 85.9-54 43.7-89.899 83.099-107.899 118.099-18.4 35.801-24.8 75.5-26.4 115.301-1.399 34.1 25.8 62.5 60 62.5h49c31.2 0 57-23.9 59.8-54.9 2-22.299 5.7-39.199 11.301-50.699 9.399-19.701 33.699-45.701 72.699-78.1C723.59 477.8 772.79 428.4 795.891 392c23-36.3 34.6-74.8 34.6-115.5 0-73.5-31.3-138-94-193.4-62.6-55.4-147-83.1-253-83.1-100.8 0-182.1 27.3-244.1 82-52.8 46.6-84.9 101.8-96.2 165.5-3.501 18.6 9.199 36 27.699 38.3z" fill="rgba(0, 0, 0, 0.5)" stroke="none"/>
</svg>
</g></svg></g></g>
<!-- /image 41618 -->

<!-- image 45269 -->
<g id="transformed-45269" data-image="45269" transform="translate(38.453426594611685, 38.453426594611685) rotate(23, 29.546573405388315, 29.546573405388312)"><g><svg version="1.1" width="59.09314681077663px" height="59.093146810776624px" viewBox="0 0 59.09314681077663 59.093146810776624"><g id="original-45269"><svg xmlns="http://www.w3.org/2000/svg" fill="#000000" viewBox="0 0 973.1 973.1" xmlns:xlink="http://www.w3.org/1999/xlink" version="1.1" preserveAspectRatio="xMidYMid meet">
  <path d="M502.29 788.199h-47c-33.1 0-60 26.9-60 60v64.9c0 33.1 26.9 60 60 60h47c33.101 0 60-26.9 60-60v-64.9c0-33.199-26.899-60-60-60z" fill="rgba(255, 255, 255, 1)" stroke="none"/>
  <path d="M170.89 285.8l86.7 10.8c27.5 3.4 53.6-12.4 63.5-38.3 12.5-32.7 29.9-58.5 52.2-77.3 31.601-26.6 70.9-40 117.9-40 48.7 0 87.5 12.8 116.3 38.3 28.8 25.6 43.1 56.2 43.1 92.1 0 25.8-8.1 49.4-24.3 70.8-10.5 13.6-42.8 42.2-96.7 85.9-54 43.7-89.899 83.099-107.899 118.099-18.4 35.801-24.8 75.5-26.4 115.301-1.399 34.1 25.8 62.5 60 62.5h49c31.2 0 57-23.9 59.8-54.9 2-22.299 5.7-39.199 11.301-50.699 9.399-19.701 33.699-45.701 72.699-78.1C723.59 477.8 772.79 428.4 795.891 392c23-36.3 34.6-74.8 34.6-115.5 0-73.5-31.3-138-94-193.4-62.6-55.4-147-83.1-253-83.1-100.8 0-182.1 27.3-244.1 82-52.8 46.6-84.9 101.8-96.2 165.5-3.501 18.6 9.199 36 27.699 38.3z" fill="rgba(255, 255, 255, 1)" stroke="none"/>
</svg>
</g></svg></g></g>
<!-- /image 45269 -->

<!-- image 40472 -->
<g id="transformed-40472" data-image="40472" transform="translate(138.85205451727649, 121.85205451727646) rotate(355, 54.14794548272352, 54.147945482723536)"><g><svg version="1.1" width="108.29589096544704px" height="108.29589096544707px" viewBox="0 0 108.29589096544704 108.29589096544707"><g id="original-40472"><svg xmlns="http://www.w3.org/2000/svg" fill="#000000" viewBox="0 0 1024 1024" xmlns:xlink="http://www.w3.org/1999/xlink" version="1.1" preserveAspectRatio="xMidYMid meet">
  <path d="M760 380.4l-61.6-61.6-263.2 263.1-109.6-109.5L264 534l171.2 171.2L760 380.4z" fill="rgba(255, 255, 255, 1)" stroke="none"/>
</svg>
</g></svg></g></g>
<!-- /image 40472 -->
</defs><rect x="0" y="0" width="250" height="250" fill="rgba(119, 210, 245, 1)"></rect><use xlink:href="#transformed-91360" transform="translate(-250, -250)"></use><use xlink:href="#transformed-91360" transform="translate(0, -250)"></use><use xlink:href="#transformed-91360" transform="translate(250, -250)"></use><use xlink:href="#transformed-91360" transform="translate(-250, 0)"></use><use xlink:href="#transformed-91360" transform="translate(0, 0)"></use><use xlink:href="#transformed-91360" transform="translate(250, 0)"></use><use xlink:href="#transformed-91360" transform="translate(-250, 250)"></use><use xlink:href="#transformed-91360" transform="translate(0, 250)"></use><use xlink:href="#transformed-91360" transform="translate(250, 250)"></use><use xlink:href="#transformed-41618" transform="translate(-250, -250)"></use><use xlink:href="#transformed-41618" transform="translate(0, -250)"></use><use xlink:href="#transformed-41618" transform="translate(250, -250)"></use><use xlink:href="#transformed-41618" transform="translate(-250, 0)"></use><use xlink:href="#transformed-41618" transform="translate(0, 0)"></use><use xlink:href="#transformed-41618" transform="translate(250, 0)"></use><use xlink:href="#transformed-41618" transform="translate(-250, 250)"></use><use xlink:href="#transformed-41618" transform="translate(0, 250)"></use><use xlink:href="#transformed-41618" transform="translate(250, 250)"></use><use xlink:href="#transformed-45269" transform="translate(-250, -250)"></use><use xlink:href="#transformed-45269" transform="translate(0, -250)"></use><use xlink:href="#transformed-45269" transform="translate(250, -250)"></use><use xlink:href="#transformed-45269" transform="translate(-250, 0)"></use><use xlink:href="#transformed-45269" transform="translate(0, 0)"></use><use xlink:href="#transformed-45269" transform="translate(250, 0)"></use><use xlink:href="#transformed-45269" transform="translate(-250, 250)"></use><use xlink:href="#transformed-45269" transform="translate(0, 250)"></use><use xlink:href="#transformed-45269" transform="translate(250, 250)"></use><use xlink:href="#transformed-40472" transform="translate(-250, -250)"></use><use xlink:href="#transformed-40472" transform="translate(0, -250)"></use><use xlink:href="#transformed-40472" transform="translate(250, -250)"></use><use xlink:href="#transformed-40472" transform="translate(-250, 0)"></use><use xlink:href="#transformed-40472" transform="translate(0, 0)"></use><use xlink:href="#transformed-40472" transform="translate(250, 0)"></use><use xlink:href="#transformed-40472" transform="translate(-250, 250)"></use><use xlink:href="#transformed-40472" transform="translate(0, 250)"></use><use xlink:href="#transformed-40472" transform="translate(250, 250)"></use></svg>