<?xml version="1.0" encoding="UTF-8"?>
<svg version="1.1" viewBox="0 0 2048 737" width="1280" height="1280" xmlns="http://www.w3.org/2000/svg">
<path transform="translate(334,148)" d="m0 0h19l13 2 18 6 14 8 12 9 8 8 3 2 17 4 16 7 11 7 10 9 9 13 6 13 11 7 9 8 6 10 3 9 1 6v17l-2 14-1 6 11 16 7 15 3 11 1 7v9l-3 15-6 14-10 14-9 9-2 9-3 12-6 12-9 10-10 7-12 5-12 3h-22l-17-5-11-6-9-8v18l-2 12-7 14-9 11-11 8-14 6 5 5 13 7 4-1 8-4 10-1 9 3 8 6 5 9 1 10-4 10-5 6-8 4-13 1-9-3-6-5-5-10-2-5-10-4-11-7-9-9-6-10-16-5-11-7-10-9-7-11-5-12-2-11 1-13 3-13-11 2h-23l-18-3-17-5-19-9-13-9-12-11-8-9-4-7-5 1-19 6-7 1h-25l-15-4-13-7-12-10-9-12-6-12-4-13-1-14 2-13 5-14 7-11 9-10 13-9 5-3v-11l4-16 8-15 12-13 10-7 11-5 9-2 14-1 10-14 9-10 11-8 14-7 15-4 12-1h13l14 2 16 5 8 4 10-7 15-9 19-7zm7 28-2 2 10 9h2l2 4 8 9 8 14 3 3 11-12 10-7-5-5-8-6-12-6-14-4zm-42 15-9 7-2 4 2 11 6 11 8 7 8 3h9l8-4 10-10-1-4-6-8-12-9-16-8zm-81 1-12 3-10 5-10 9-7 8-2 9 4 10 6 10 11 12 10 8 16 8-2-5-7-14-4-13-1-6v-12l3-12 8-16 1-4zm37 8-9 9-6 10-2 6v11l7-2h11l6 4 2 4v26l5 12 8 9 12 6 7 2h15l12-3 17-8 9-7 3-5v-24l-5 2-15 8-8 2h-14l-12-3-12-6-12-11-7-11-6-16-1-13-1-2zm157 21-10 5-6 7-3 9-4 21 1 4 7 3 5 1h20l10-4 10-9 5-7 2-7-1-8-6-8-12-6-3-1zm-272 16-12 5-6 5-6 9-3 14 2 4 6 2 5-1 7-11 9-10 10-7-1-8-2-2zm334 26-4 5-9 12-10 9-15 7-9 2-10 1h-11l-15-2-13-4h-5l-2 2v3l20 2 15 6 9 5 5-1 14-8 15-5 6-1h19l15 2 1-1 1-7v-12l-3-8-4-4-6-3zm-307 7-10 9-4 5-5 10-1 10 4 13 4 6 3-1 7-11 8-8 12-8 7-3-2-4-9-7-11-11zm-68 32-10 5-8 7-6 10-3 9v13l4 12 6 8 9 8 11 5 9 2h10l17-4 12-6 1-1v-8l-3-7-9-9-9-4-6-3-3-6v-16l-3-9-5-5-3-1zm145 10-18 1-17 3-12 5-6 4-5 5-5 7 1 4 8 5 13 5 10 2h12l12-3 9-6 6-7 3-9v-10l-2-6zm219 11-16 4-13 7-1 2 8 17 3 8 1 1 17 1 11 3 10 5 9 9 7 11h3l6-11 2-8v-12l-5-13-6-11-8-8-13-4-7-1zm-179 1-1 1-3 17v3l19 4 8 4h2l6-17 6-10v-2zm82 3-2 1 2 11 4 12 5 8 7 6 11 3h12l10-2-1-6-8-15-8-9-10-7-5-2zm-28 26-1 1-1 7v14l4 15 8 15 7 8 10 6 7 3 5 1h15l10-3 10-7 6-9 2-5v-4h-32l-15-4-11-6-10-10-6-10-6-12zm-157 20 3 10 4 10 9 10 13 9 16 8 17 5h5l-7-15-3-10-1-21-7 1h-23l-17-4zm96 1-6 3-4 4-1 3v12l5 10 9 6 8 2h12l10-3 5-4-1-5-5-10-8-10-9-6-6-2zm172 16-1 1-2 15-3 9-5 9-9 10-10 8 4 4 12 6 7 2h9l10-3 9-6 6-8 3-9v-11l-5-13-8-11-7-3zm-117 53-10 4-8 7-6 12-1 11 2 9 6 9 7 6h2l3-26 3-12 3-3 9-1 5 3 2 5-3 22-1 15 7-1 9-6 5-6 3-6 1-4v-13l-3-9-7-9-10-6-4-1z" fill="#05BCF8"/>
<path transform="translate(330,177)" d="m0 0h9l10 9 5 5 8 9 8 14v4h2l2 12 1 2 6-2h11l1 7v11l-3 15 1 4 11 3h24l3 2-2 2 1 9 3 5 4 6v2l-3 2-15 2h-11l-15-2-13-4h-5l-2 4h13l10 2 16 7 5 3 5-1 14-8 15-5 6-1h14l4 2 1 3-2 4 7-2 5-1 3-1 2 2h10v3h6l5 2 3 1 3 6 5 5 7 10 7 15 3 11 1 7v9l-3 15-6 14-10 14-9 9-2 9-3 12-6 12-9 10-10 7-12 5-12 3h-22l-17-5-11-6-9-8v18l-2 12-7 14-9 11-11 8-14 6 5 5 13 7 4-1 8-4 10-1 9 3 8 6 5 9 1 10-4 10-5 6-8 4-13 1-9-3-6-5-5-10-2-5-10-4-11-7-9-9-6-10-16-5-11-7-10-9-7-11-5-12-2-11 1-13 3-13-11 2h-23v-2l-5-1 3-3 15-3 10-4h2v-2l5-4 3-5 9-7 3-6h2v-3l12-3 6-4-1-5-5-10-8-10-8-5-7-3-1-4 1-4v-13l-2-6h12l10 4 4 2 3-12 7-14 2-3-4 1h-33l-3 17-3 1 1 3-12 2-12 6-8 7-8 13-3 6-6 1h-23l-17-4-8-4-2-6v-22l1-3 5 1 13 6 14 3h12l12-3 9-6 6-8 2-7v-10l-1-7h-4l1-5 4-2h6v-2l8 1 7 1 3-1 5 1 1 1v-1l12-1 6-1v-2l11-3h4v-2l15-6 11-6 6-5 2-4 1-24-8 3-3-1 5-5 5-4 5-5 3-6-1-7-5-3-12-2-4-4-5-7-12-9-16-8 2-4 10-5h2v-2zm133 146-16 4-13 7-1 2 8 17 3 8 1 1 17 1 11 3 10 5 9 9 7 11h3l6-11 2-8v-12l-5-13-6-11-8-8-13-4-7-1zm-97 4-2 1 2 11 4 12 5 8 7 6 11 3h12l10-2-1-6-8-15-8-9-10-7-5-2zm-28 26-1 1-1 7v14l4 15 8 15 7 8 10 6 7 3 5 1h15l10-3 10-7 6-9 2-5v-4h-32l-15-4-11-6-10-10-6-10-6-12zm111 37-1 1-2 15-3 9-5 9-9 10-10 8 4 4 12 6 7 2h9l10-3 9-6 6-8 3-9v-11l-5-13-8-11-7-3zm-117 53-10 4-8 7-6 12-1 11 2 9 6 9 7 6h2l3-26 3-12 3-3 9-1 5 3 2 5-3 22-1 15 7-1 9-6 5-6 3-6 1-4v-13l-3-9-7-9-10-6-4-1z" fill="#0AA2EF"/>
<path transform="translate(1415,250)" d="m0 0h25l14 3 12 5 11 6 13 10 14 14 9 14 5 11 4 15 1 6v28l-4 18-3 9 5 4 11 8 7 8 1 2v7l-6 12-9 10-4 2h-7l-14-7-13-9-4 2-14 8-16 5-6 1h-29l-16-4-16-8-9-6-10-9-5-5-8-9-8-13-5-12-4-16-1-10v-10l3-19 5-15 7-14 9-12 10-10 15-10 16-7zm10 48-11 4-9 6-6 5-6 8-5 11-2 12 1 16 4 12 7 10 7 6 11 5 6 1h13l10-3 12-7 7-7 6-10 3-9 1-5v-18l-4-13-7-11-8-7-12-5-4-1z" fill="#00E5FD"/>
<path transform="translate(574,252)" d="m0 0h62l16 2 12 4 15 8 12 9 10 9 8 9 8 13 5 12 3 12 1 12v11l-2 16-5 15-8 15-9 11-8 8-11 8-16 8-16 4-7 1-18 1h-38l-11-1-8-4-7-8-1-2-1-36v-80l1-47 4-6 5-3zm36 48v91h26l13-4 11-7 7-7 6-10 3-10v-18l-3-10-6-10-4-5-10-6-9-3-11-1z" fill="#00E5FD"/>
<path transform="translate(780,252)" d="m0 0h112l9 3 5 4 5 10 1 4v10l-3 10-4 5-7 2-86 1v20l55 1 8 4 7 8 2 6v15l-4 10-6 4-4 1-58 1v20h78l8 2 6 4 5 6 3 9v11l-3 9-5 6-10 2h-111l-9-3-9-8-3-8v-154l3-8 5-5z" fill="#00E5FD"/>
<path transform="translate(1878,252)" d="m0 0h117l8 3 11 10 4 10v7l-6 12-12 16-39 54-8 11-13 18h63l8 4 7 6 3 10v11l-3 10-5 4-6 2-9 1h-106l-8-3-9-6-6-7-2-5v-12l4-8 14-19 13-18 14-19 12-17 13-18 6-9-54-1-10-2-8-6-4-8-1-11 2-11 4-6z" fill="#00E4FD"/>
<path transform="translate(1586,252)" d="m0 0h20l8 3 7 8 2 5 1 6 1 87 3 14 6 11 5 4 11 3h11l10-3 6-4 6-7 4-8 3-11 1-94 3-8 5-4 5-2h19l9 4 5 4 3 5 1 8v46l-1 53-5 17-8 16-6 9-9 10-13 9-11 5-16 4h-27l-12-3-16-8-13-10-8-8-9-13-8-17-4-15-2-19v-79l2-9 4-6z" fill="#00E5FD"/>
<path transform="translate(361,329)" d="m0 0h3l6 20 5 9 7 6 11 3h12l10-1-5-12-6-10-3-4v-2l4 1 9 6 7-2 10-6 4 1 7 15 3 8 17 1 11 3 10 5 5 5v2h-4l1 7 2 1 6 12 3 3h6l10-5 4-5 3-5 2-1 2-3 1 1 1-2 4 1 2 6-1 5-3 1v9l-3 4-3 7-10 10-2 9-3 12-6 12-9 10-10 7-12 5-12 3h-22l-17-5-11-6-9-8v18l-2 12-7 14-9 11-11 8-14 6 5 5 13 7 4-1 8-4 10-1 9 3 8 6 5 9 1 10-4 10-5 6-8 4-13 1-9-3-6-5-5-10-2-5-10-4-11-7-9-9-6-10-8-2-1-3-4-2 2-6 6-8 3-2h4v-2h12l8-6 9-6 4-5 3-6 1-4v-13l-3-9-7-9-9-5-7-3v-5h2l2-4 6-4 1-2h3v-2l7-3 1-2 7 1 5 1h15l10-3 9-6 6-9 3-9-11 1h-21l-15-4-11-6-11-11-6-10-2-4-2-8v-7l6-8 9-7zm88 61-1 1-2 15-3 9-5 9-9 10-10 8 4 4 12 6 7 2h9l10-3 9-6 6-8 3-9v-11l-5-13-8-11-7-3z" fill="#1A4AD7"/>
<path transform="translate(1219,249)" d="m0 0h22l16 3 12 5 11 7 10 9 4 6v7l-7 12-5 6-9 4-9-1-10-5-9-6-2-1h-12l-8 4-3 5-1 7 2 6 10 3 30 7 15 6 11 7 8 8 7 14 3 14v12l-4 17-6 11-9 10-13 8-12 5-15 3h-21l-16-4-16-8-12-9-8-8-7-11-1-9 6-10 7-7 5-3h10l8 4 15 13 8 5 3 1h11l10-4 4-5 1-4v-7l-2-4-11-4-19-5-16-6-15-8-10-9-7-11-4-12-1-5v-14l3-12 6-12 11-12 10-7 11-4z" fill="#00E5FD"/>
<path transform="translate(966,250)" d="m0 0h7l7 4 7 7 8 16 34 74 8 17v2h2l3-10 15-32 30-66 6-9 5-3 10 1 10 4 11 8 5 6 1 2v9l-7 16-15 30-11 23-28 56-10 21-7 9-9 4-4 1h-7l-9-3-10-8-8-13-11-22-11-23-21-42-11-23-13-27-2-9 3-7 7-6 12-6z" fill="#00E5FD"/>
<path transform="translate(1797,252)" d="m0 0h14l9 3 8 7 2 4 1 8v148l-2 10-4 5-10 3h-13l-11-4-6-5-3-6-1-7v-152l3-8 5-4z" fill="#00E5FD"/>
<path transform="translate(361,329)" d="m0 0h3l6 20 5 9 7 6 11 3h12l10-1-5-12-6-10-3-4v-2l4 1 9 6 7-2 10-6 4 1 7 15 3 8 17 1 11 3-3 1-8-1h-10l-1 4v20h6v1l-8 1-2 15-3 9-5 9-9 10-7 6-3 3 5 3-1 2-3 1h-16l-15 8-17 10-1 11-2 2-2-16-4-8-5-6-9-5-7-3v-5h2l2-4 6-4 1-2h3v-2l7-3 1-2 7 1 5 1h15l10-3 9-6 6-9 3-9-11 1h-21l-15-4-11-6-11-11-6-10-2-4-2-8v-7l6-8 9-7z" fill="#1E6CDD"/>
<path transform="translate(283,347)" d="m0 0h12l10 4 4 3 5 19 3 6v3h2l2 3h7l7-1 1-2 3 6v2h2l8 15 6 7 10 6 2 2h-2l-1 3-4 2h-3v2h-3l-1 3-7 5-2 5v3l-16 2-10 6-6 8-3 7-1 11 2 9 6 9 6 5 2 1v-10l3-21 3-8 3-3 9-1 5 3 3 6-3 22-2 15 4 1-6 4-11-1v2l-7 3-6 8-2 5 5 2v2l-5-1-10-5-10-8-7-8-8-16-3-14 1-13 3-13-11 2h-23v-2l-5-1 3-3 15-3 10-4h2v-2l5-4 3-5 9-7 3-6h2v-3l12-3 6-4-1-5-5-10-8-10-8-5-7-3-1-4 1-4v-13z" fill="#1479E0"/>
<path transform="translate(278,343)" d="m0 0 13 3v1l-7 1 2 5v13l-1 8-11 2-6 5-1 3v12l5 10 8 5 16 3v3l-2 1-3 6-10 8-3 5-4 2v2l-12 5-15 3-2 2 4 2h-8l-21-5-15-6-15-8-14-11-11-11-3-4-1-6 3-3 6-1 1-7-1-6 5-1 9 8h3l5 5 10 9 15 9 15 6 11 3h4l-7-14-3-10-1-22 8-14 8-9 10-6 9-3 7-1z" fill="#0B96EB"/>
<path transform="translate(458,295)" d="m0 0h11l4 2 1 3-2 4 7-2 5-1 3-1 2 2h10v3h6l5 2 3 1 3 6 5 5 7 10 7 15 3 11 1 7v9l-3 15-6 14-6 9-1-3 3-4v-7l4-4-1-8-1-2-3-1-1 3-1-1-2 3h-2l-2 5-6 7-10 4h-5l-6-7-3-6v-3l-3-1-1-4 1-3 5-1 6 7 5 8 4-5 4-10 1-4v-12l-5-13-6-11-7-7-13-4-7-1h-8l-16 4-13 7v2l-18 9-6-2-6-5-5-1-9-7 1-4 8-4 5-4 7-3 10-2 7 1h4 7l14-4 10-3-4-1-1-3-4-1v-5z" fill="#0C8DE9"/>
<path transform="translate(464,231)" d="m0 0h6l8 6 11 7 9 3-4-6 7 2 9 8 6 10 3 9 1 6v17l-2 14-1 8-3-3-1-4h-5l-3-2-6-1v-3l-10 1h-2v-3l-4 3h-5l-1 2-7-1 3-5v-2l-4-2 12 1 8 1 1-7v-12l-3-8-1-3-6-2-6-1-12 16-7 7-10 6-9 4-3-1h2l-6-9-3-8v-5l2-2-2-1v-2l10-6 7-7 3-5 2-1 3-8 5-4 3-1 3-5z" fill="#09A3EF"/>
<path transform="translate(257,314)" d="m0 0 6 1 19 8 1 1v8l-2 10-3 1 1 3-12 2-12 6-8 7-8 13-3 6-6 1h-23l-17-4-8-4-2-6v-22l1-3 5 1 13 6 14 3h12l12-3 9-6 6-8 2-7v-13z" fill="#0842A7"/>
<path transform="translate(361,329)" d="m0 0h3l6 20 5 9 8 7v2l12 2 19-2 3-1 2 13v14l-5 1-22 1-16-3-9-5-16-12-6-10-2-4-2-8v-7l6-8 9-7z" fill="#0840A5"/>
<path transform="translate(336,458)" d="m0 0 9 1 4 5 1 6-3 19-2 15 4 1-6 4-11-1v2l-7 3-6 8-2 5 5 2v2l-5-1-10-5-10-8-7-8-7-13 1-7 6-5 4-9 5-7 5-1v-2l4-2 1 4-1 11 2 9 6 9 6 5 2 1v-10l3-21 3-8 3-3z" fill="#1D5FD7"/>
<path transform="translate(511,324)" d="m0 0 12 1 5 4 7 15 3 11 1 7v9l-3 15-6 14-6 9-1-3 3-4v-7l4-4-1-8-1-2-3-1-1 3-1-1-2 3h-2l-2 5-6 7-10 4h-5l-6-7-3-6v-3l-3-1-1-4 1-3 5-1 6 7 5 8 4-5 4-10 1-4v-12l-5-13-6-11-2-6h2l1-3h10v-2z" fill="#167CE1"/>
<path transform="translate(224,192)" d="m0 0h14l18 5-1 4-8 8-6 10-3 8v12l-2 11-1 16-2 7-2 1h-6v-3h-3l-8-16-4-13-1-6v-12l3-12 8-16z" fill="#0842A7"/>
<path transform="translate(452,364)" d="m0 0h10l14 2 9 6 3 3v2h-4l1 7 2 1 6 12 3 3h6l10-5 4-5 3-5 2-1 2-3 1 1 1-2 4 1 2 6-1 5-3 1v9l-3 4-3 7-6 5 1-6-2-2-8 1-18 6-9 1-5-12-7-11-5-3-5-2-6-1-1-10v-10z" fill="#1D5ED7"/>
<path transform="translate(278,343)" d="m0 0 13 3v1l-7 1 2 5v13l-1 8-11 2-6 5-2 13-4 1-6-3-5 5-3 10v8l3 11h-9l-2-2h7l-7-14-3-10-1-22 8-14 8-9 10-6 9-3 7-1z" fill="#0AA2EF"/>
<path transform="translate(171,384)" d="m0 0 5 1 8 7h3l5 5 10 9 15 9 15 6-3 2 1 2-3 4-17 6-1 5 5 2 6 4-3 1-16-7-14-8-13-11-9-9-3-4-1-6 3-3 6-1 1-7-1-6z" fill="#09A4EF"/>
<path transform="translate(330,177)" d="m0 0h9l10 9 5 5 8 9 8 14v7l-3 7-4-5-5-5-5-2h-14v-2l-4-1-5-5-8-7-15-8-3-1 2-4 10-5h2v-2z" fill="#0942A7"/>
<path transform="translate(1824,261)" d="m0 0 4 1 2 4 1 8v148l-2 10-4 5-10 3h-13l-11-4-1-2 2-1 21-1 5-2 3-7 1-10 1-137z" fill="#07AEF4"/>
<path transform="translate(361,322)" d="m0 0 6 1 1 3 2 1-14 5-9 7-5 7v7l1 6-2-2-1-3h-2l-1 7v14l3 12-1 3-3-7-8 3h-7l-2-4h-2l-6-15-3-14 9-5 6-5h2v-3l11-6 15-8z" fill="#0B96EB"/>
<path transform="translate(389,269)" d="m0 0h8l5 1h24l3 2-2 2 1 9 3 5 4 6v2l-3 2-15 2h-11l-15-2-10-3-3-3 1-6 8-16z" fill="#0843A8"/>
<path transform="translate(437,396)" d="m0 0h5l4 2-1 12-4 11-7 9-8 8-6 4 5 4-1 2-3 1h-16l-15 8-17 10-1 11-2 2-2-16-2-9 7-1 16-6 10-7 9-2 5-6 7-11 3-3 1-4h2l-1-4 7-11z" fill="#1D60D7"/>
<path transform="translate(716,311)" d="m0 0 4 1 4 12 2 18v11l-2 16-5 15-8 15-9 11-8 8-11 8-16 8-16 4-7 1-18 1h-38l-11-1-5-2v-2l72-1 14-3 8-3 4-1v-2l12-7 5-4h2l2-4 10-10 9-12 5-10 4-13 1-6v-33l-2-9-2-3z" fill="#1758D9"/>
<path transform="translate(1132,272)" d="m0 0 2 1v10l-12 25-25 51-23 46-10 21-7 9-6 3h-17l-1-2 12-2 9-6 4-8h2l2-6 4-9h2l2-6 12-26 15-29 9-20 11-20 6-14 7-13z" fill="#1A6ADB"/>
<path transform="translate(274,410)" d="m0 0 6 1 16 3v3l-2 1-3 6-10 8-3 5-4 2v2l-12 5-15 3-2 2 4 2h-8l-9-3-1-4v-2l3-3 8-1v-2l9-2 3-3 5-6 2-8 3-3 1-4z" fill="#0B8DE9"/>
<path transform="translate(152,246)" d="m0 0h2l12 20 2 4-12 11-5 9-4 11-3-3-2-6-7-8-10-7 2-5 6-9 9-10z" fill="#0843A8"/>
<path transform="translate(455,295)" d="m0 0 3 1-3 2 1 4 3 2v3h5l-3 3-20 5-7 1-6 1v-2h-7l-10 2-9 4-4 4-7 3-2 3-6-3-7-1-1-2-3-1 2-4 11-4 16-2h5l-4-2v-2l-5-2-6-3-8-2-1-4h9l15 6 9 5 5-1 14-8 15-5z" fill="#0A97EB"/>
<path transform="translate(1737,264)" d="m0 0 3 1 1 8v46l-1 53-5 17-8 16-6 9-9 10-13 9-11 5-16 4h-27l-2-3 23-1 10-2 13-5 10-5 10-9 9-10 5-7 3-7 4-7 5-19 1-11z" fill="#1858DA"/>
<path transform="translate(529,362)" d="m0 0 8 2 1 4v10l-5 16-7 12-3 3 1-4 2-3v-7l4-4-1-8-1-2-3-1-1 3-1-1-2 3h-2l-2 5-6 7-10 4h-5l-6-7-3-6v-3l-3-1-1-4 1-3 5-1 6 7 5 8 4-5 4-10 2-7h3l5-3z" fill="#1E6CDD"/>
<path transform="translate(2011,265)" d="m0 0 4 2 3 8v7l-6 12-12 16-39 54-8 11-12 16-2 2h-5l1-5 14-20 9-13 12-16 13-18 14-19 13-18 1-5z" fill="#1757DB"/>
<path transform="translate(307,462)" d="m0 0 2 1-1 14 2 9 6 9 4 5-5 2-5 1-4 2-6 2v7l14 11v2l-5-2-11-8-8-9-7-13 1-7 6-5 4-9 5-7 5-1v-2z" fill="#1E6CDD"/>
<path transform="translate(2014,401)" d="m0 0 4 2 3 10v11l-3 10-5 4-6 2-9 1h-106l-8-3v-3l126-1 2-5 3-7v-14z" fill="#0A98EC"/>
<path transform="translate(518,273)" d="m0 0 2 3v17l-2 14-1 8-3-3-1-4h-5l-3-2-6-1v-3l-10 1h-2v-3l-4 3h-5l-1 2-7-1 3-5v-2l-4-2 12 1 8 1 2-12 11-7 4-3h11z" fill="#0A96EB"/>
<path transform="translate(606,295)" d="m0 0h34l5 3v2l-4 1-31-1v92h-5l-2-5v-74l1-13z" fill="#06B1F5"/>
<path transform="translate(1295,352)" d="m0 0 3 1 4 9 3 14v12l-4 17-6 11-9 10-13 8-12 5-15 3h-21l-3-2 21-2 16-5 10-5h4v-2h3v-2l8-7 7-8 5-11 2-17v-20z" fill="#165FDC"/>
<path transform="translate(1828,266)" d="m0 0h2l1 8v148l-2 10-4 5-3 1h-19v-2l16-3 4-4 2-6 1-53 1-98z" fill="#1A6EDD"/>
<path transform="translate(283,347)" d="m0 0h12l10 4 3 2-1 35-3-1-4-5-8-5-7-3-1-4 1-4v-13z" fill="#0943A8"/>
<path transform="translate(1129,264)" d="m0 0 5 5 1 2v9h-1l-1-7-2 4-10 19-3 8-12 22-13 28-15 29-7 16-3 6h-2l-2 7-4 8h-2l-2 7-7 6-9 3-6 1 14 1-4 2h-7l-8-3-1-4 3-1 14-1 8-8 6-9 11-23 10-21 8-16 17-33 10-19 10-21 2-7 1-9z" fill="#05B7F7"/>
<path transform="translate(1733,259)" d="m0 0 4 1 2 5h-1l-1 91-2 16-5 16-5 8-2 5-7 9-11 12h-2l-1 3-9 5-11 5-9 3-7 1-22 1-4 1-14-5-5-3 1-2 22 4h21l15-3 14-6 4-1 15-15 9-14 8-16 2-11 2-39v-67z" fill="#07AFF4"/>
<path transform="translate(1481,421)" d="m0 0 7 2v2l-7 4-12 7-16 5-6 1h-29l-16-4-13-6v-3l13 2 12 3 11 1h9l21-3 13-5 9-5z" fill="#04BCF8"/>
<path transform="translate(320,353)" d="m0 0 2 2-1 2h7l2 4 5 2 4 21 1 6-2-2-2-5-8 3h-7l-2-4h-2l-6-15-2-8v-5h9z" fill="#0C8DE8"/>
<path transform="translate(906,263)" d="m0 0 3 1 3 9v10l-3 10-4 5-7 2-86 1-1 17-2 5h-1v-27l83-1 10-1 4-9z" fill="#156FDF"/>
<path transform="translate(442,259)" d="m0 0h2l-1 4-4 6v6h14l5 1 1 5-7 6-1 3-15 7-3-1h2l-6-9-3-8v-5l2-2-2-1v-2l7-4 5-2z" fill="#0B95EA"/>
<path transform="translate(389,547)" d="m0 0 9 1v2l5 1 3 5v10l-3 5-4 3-7 1-7-3-4-4-2-8 4-8 4-2v-2z" fill="#083FA4"/>
<path transform="translate(337,214)" d="m0 0h2v2l2-1h12l6 3 7 8 2-1-1 9-6 26-3 7h-2l-2 4h-1l-1-21-8 3-3-1 5-5 5-4 5-5 3-6-1-7-5-3-12-2-4-4z" fill="#0D9CEC"/>
<path transform="translate(278,343)" d="m0 0 13 3v1l-7 1 2 5v13l-1 8-5-1-6-9-2-6-3-1h-10l-9 7-5 6-5 9-4-1 8-14 8-9 10-6 9-3 7-1z" fill="#0B95EA"/>
<path transform="translate(452,364)" d="m0 0h10l14 2 6 4v2l-5 1-8 6-5 12-7-1-6-1-1-10v-10z" fill="#0840A5"/>
<path transform="translate(878,333)" d="m0 0h2l3 8v17l-4 8-5 3-4 1-58 1-1 18-1 3h-2v-26l42-1 17-1 6-2 4-7z" fill="#117EE4"/>
<path transform="translate(1619,263)" d="m0 0h2l2 5 1 6 1 87 3 14 1 4-5-4-4-13-1-7z" fill="#1B50D7"/>
<path transform="translate(906,402)" d="m0 0 3 1 3 9v11l-3 9-5 6h-122l-3-2 2-1 112-1 7-2 5-6 1-4z" fill="#175DDC"/>
<path transform="translate(431,337)" d="m0 0 4 1 7 15v3l-15 1-6 3-3 3-3-1-2-7-3-1-6-10-3-4v-2l4 1 9 6 7-2z" fill="#0943A7"/>
<path transform="translate(1132,272)" d="m0 0 2 1v10l-12 25-13 27-3 3-10 20-3-1 1-7 13-28 10-18 6-14 7-13z" fill="#1855DA"/>
<path transform="translate(1284,341)" d="m0 0 9 5 4 5-1 3 3 7v20l-2 17-6 12-9 10-4 4h-2v2h-3v2l-13 5-9 4-8 2-24 2-15-5-4-2-1-3h8l16 3h21l16-4 12-5 9-7 8-10 4-7 3-14v-19l-2-11-6-10-4-4z" fill="#04BDF9"/>
<path transform="translate(901,396)" d="m0 0 4 2 3 3-1 5v16l-3 7-6 5-5 1-112 1 2 1h30l88 1v1l-7 1h-111l-7-2v-3l3-1 108-1 12-2 4-6 1-6v-11l-3-9z" fill="#09ACF2"/>
<path transform="translate(1417,295)" d="m0 0h12l7 2v1l-15 2-14 7-7 6-6 8-5 11-2 12v22l-3-3-2-7v-21l2-9 6-12 7-8 7-5h2v-2z" fill="#1B59D9"/>
<path transform="translate(1737,264)" d="m0 0 3 1 1 8v46l-1 53-2 7-2-2-4 4 3-14 1-11z" fill="#1163D7"/>
<path transform="translate(607,296)" d="m0 0h11l4 2h-13l1 4v88l-3 1-1-11v-83z" fill="#125CC9"/>
<path transform="translate(1511,303)" d="m0 0 3 1 5 12 4 18v28l-4 18-4 9h-2v-9l4-18v-37l-2-11-4-8z" fill="#1B5FD8"/>
<path transform="translate(2014,401)" d="m0 0 4 2 3 10v11l-3 10-5 4h-48l-38-1v-1l83-2 2-5 3-7v-14z" fill="#195CDC"/>
<path transform="translate(442,358)" d="m0 0 3 3-2 1-1 5-4 6-6 7-4 4-5-2-2-5-1-10 5-5 17-2z" fill="#1478E0"/>
<path transform="translate(990,272)" d="m0 0 3 1 14 30 15 33 13 28 1 8-4-5-1-4h-2l-3-10-3-5-3-7-5-8-7-16-4-9-3-9-11-24z" fill="#1070D3"/>
<path transform="translate(400,331)" d="m0 0 30 2 3 1 1 3-18 9-6-2-6-5-5-1-3-2 1-4z" fill="#1678E0"/>
<path transform="translate(1479,423)" d="m0 0h7l-2 4-13 8-18 6-6 1h-29v-2l-2-1 27-1 12-3 16-8z" fill="#1961DC"/>
<path transform="translate(572,435)" d="m0 0h64v1l15 1v1l-7 1-18 1h-38l-11-1-5-2z" fill="#128AE7"/>
<path transform="translate(1701,423)" d="m0 0 2 1-7 5-17 7-6 2-7 1-22 1-4 1-14-5-5-3 1-2 22 4h21l15-3 14-6z" fill="#06BBF8"/>
<path transform="translate(237,227)" d="m0 0h1v9l5 2 1 5-2 7-2 20-3 8-7-1v-2l-3-1 6-1 2-23 2-12z" fill="#0A9FEE"/>
<path transform="translate(1829,267)" d="m0 0h1l1 7v148l-1 6-2-4v-56z" fill="#084EAF"/>
<path transform="translate(1288,277)" d="m0 0 6 2v7l-7 12-5 6-9 4-9-1v-3l9-3 5-4 3-4h2v-3h2l1-5 1-1z" fill="#1660DB"/>
<path transform="translate(1621,265)" d="m0 0 2 3 1 6 1 87 1 11-2-3-2-16-1-28z" fill="#07ADF2"/>
<path transform="translate(1617,261)" d="m0 0 3 2v92l3 14 1 6-4-4-3-9z" fill="#07ABF3"/>
<path transform="translate(1885,295)" d="m0 0h56l5 1v2l-4 1h-53l-6-1 2-1z" fill="#1772DD"/>
<path transform="translate(1537,410)" d="m0 0 3 1v7l-6 12-9 10-4 2h-7l-1-4 6-2 8-9h2l1-4h2v-4h2l2-8z" fill="#155FD9"/>
<path transform="translate(1068,411)" d="m0 0 1 2-3 9-7 11-5 4-3 1h-17l-1-2 12-2 9-6 4-8h2l2-6z" fill="#1958DA"/>
<path transform="translate(686,413)" d="m0 0 3 1-15 10-4 1v2l-5 3-14 4-7 1h-72v-1l63-2 18-2 12-4 13-7z" fill="#06B5F6"/>
<path transform="translate(781,435)" d="m0 0h107v1l-16 1v1h-90l-3-2z" fill="#1A6EDD"/>
<path transform="translate(278,343)" d="m0 0 13 3v1l-7 1 2 5v13l-1 8h-3l1-7v-8l-4-5v-2l-4-1h-11l-11 6-7 6 2-4 8-7 11-5 11-2z" fill="#1773DE"/>
<path transform="translate(901,396)" d="m0 0 4 2 3 3-1 5v16l-3 7-6 5-5 1h-87v-1l81-1 12-2 4-6 1-6v-11l-3-9z" fill="#05B7F6"/>
<path transform="translate(1064,409)" d="m0 0v3l-4 8h-2l-2 7-7 6-9 3-6 1 14 1-4 2h-7l-8-3-1-4 3-1 14-1 8-8 8-12z" fill="#06B2F5"/>
<path transform="translate(906,263)" d="m0 0 3 1 3 9v10l-3 10-5 5-3-1 1-4 3-8z" fill="#205ADA"/>
<path transform="translate(152,321)" d="m0 0 3 2-1 7-3 16-1 9-4-1-7-7v-3l5-5 4-5 2-1z" fill="#083FA5"/>
<path transform="translate(360,240)" d="m0 0h2v9l-4 15-3 6-2 1-1-21 3-5h2l2-4z" fill="#083FA4"/>
<path transform="translate(1511,303)" d="m0 0 3 1 5 12 4 18-1 14-3 9h-1l-1-32-2-11-4-8z" fill="#1186E5"/>
<path transform="translate(1533,405)" d="m0 0 4 1 2 4-3 3-2 6h-2v4h-2l-1 4-11 11h-5v3l-6-2-4-4v-2l13 1 7-4 6-10 3-14z" fill="#06B3F5"/>
<path transform="translate(341,215)" d="m0 0h12l6 3 7 8 2-1-1 9-6 26-3 7-1-3 4-15 1-9-4 2 2-5 2-4v-7l-4-5-7-3v-2h-10z" fill="#1B6BDC"/>
<path transform="translate(901,256)" d="m0 0 5 3 2 4h-2v22l-4 9-1 1-10 1h-76v-1l71-1 10-1 5-5 3-5v-19l-3-5z" fill="#06B1F5"/>
<path transform="translate(1826,370)" d="m0 0h1v57l-1 4 3 1-4 5-3 1h-19v-2l16-3 4-4 2-6z" fill="#1776E0"/>
<path transform="translate(718,317)" d="m0 0 2 3 1 6v33l-4 16-5 11-8 12-1-3 11-20 3-12 2-14v-16l-1-7z" fill="#07AFF4"/>
<path transform="translate(411,355)" d="m0 0h2l3 7 4-2 4-3 3-1h15l1 2-18 2-5 4-1 4 1 10v15h-1l-2-23-1-3-10 2-14 1-9-3v-2l10 2h12l10-1z" fill="#1D59D7"/>
<path transform="translate(1386,319)" d="m0 0 1 2-3 8-1 6v21l3 9 1-5 2 4 4 10 6 9-5-2-10-14-3-6-1-5v-19l3-12z" fill="#08ADF3"/>
<path transform="translate(150,315)" d="m0 0 4 5v3l-1-1-2 11-3 1-2 4-5 6h-2v2l-6-2 1-4 8-4 4-6 3-14z" fill="#0A9DED"/>
<path transform="translate(1222,291)" d="m0 0h10l5 1-1 2-10 3-7 6-3 8h-2l-1-2v-8l4-6z" fill="#1856DA"/>
<path transform="translate(446,363)" d="m0 0h11v1l-5 1-1 4v20h6v1l-12 1 1-13-1-5v-9z" fill="#1D5FD7"/>
<path transform="translate(716,311)" d="m0 0 4 1 4 12 2 18v11l-2 16h-1v-35l-1 20h-1l-1-28-2-9-2-3z" fill="#127CDD"/>
<path transform="translate(1516,322)" d="m0 0 2 3v37l-4 18-1 9h-2l-1-6 4-17 2-21z" fill="#06B5F6"/>
<path transform="translate(1284,341)" d="m0 0 9 5 4 5-1 3 3 7v20l-1 12h-2v-25l-2-11-6-10-4-4z" fill="#05B6F7"/>
<path transform="translate(891,295)" d="m0 0h10v2l3 1h-61l-4-2z" fill="#1E60D8"/>
<path transform="translate(1973,435)" d="m0 0h26l-2 3h-32l-38-1v-1z" fill="#1578E0"/>
<path transform="translate(618,296)" d="m0 0h23l4 2v2l-4 1-31-1-1 2v-4l9-1z" fill="#0C99EB"/>
<path transform="translate(1285,269)" d="m0 0 6 5 2 5-4-1-2 7-2 5h-2v3l-5 5-6 5-8 1v2h-2l-1-3 10-3 8-7 5-7 1-4v-8l-1-4z" fill="#07ADF3"/>
<path transform="translate(1621,325)" d="m0 0h1l1 28 2 19h2l2 7-5-4-4-13-1-7v-13h2z" fill="#1872DE"/>
<path transform="translate(237,227)" d="m0 0h1l1 14-1 7-1 30-7-1v-2l-3-1 6-1 2-23 2-12z" fill="#196EDD"/>
<path transform="translate(1132,272)" d="m0 0 2 1v10l-6 13-1-3-2-1v2h-2v2h-2l2-6 7-13z" fill="#165FD3"/>
<path transform="translate(990,272)" d="m0 0 3 1 14 30 3 7-1 4-9-17-10-22z" fill="#1067CD"/>
<path transform="translate(1107,330)" d="m0 0 2 1v4l-3 3-10 20-3-1 1-7 7-12 3-4h2z" fill="#1949D7"/>
<path transform="translate(358,327)" d="m0 0h6v2l-9 4-8 6-5 7v7l1 6-2-2-3-6 1-7 8-10 9-6z" fill="#1C74DF"/>
<path transform="translate(693,280)" d="m0 0 4 2 3 3 5 3 10 14 2 4-1 4-3-1-7-13-8-10z" fill="#04C1F9"/>
<path transform="translate(453,319)" d="m0 0 4 3 6 1v1l-16 4-6 3h-2l-1-4 10-7z" fill="#099FED"/>
<path transform="translate(449,296)" d="m0 0h5l-6 7-10 7-8 2 3-3 6-4v-6z" fill="#0BA8F0"/>
<path transform="translate(428,272)" d="m0 0h2l1 11 9 9-1 4-6 1 2-1-6-9-3-8v-5z" fill="#1871DE"/>
<path transform="translate(808,366)" d="m0 0h16v2h-13v21l-1 3h-2z" fill="#194DD8"/>
<path transform="translate(1418,293)" d="m0 0h18l8 3 3 3h-8l-9-2-1-1h-12l-9 2 1-2z" fill="#05B9F8"/>
<path transform="translate(982,257)" d="m0 0 5 4 5 10-1 4 9 19-1 3-16-33z" fill="#0BA4EF"/>
<path transform="translate(2006,260)" d="m0 0 6 3 2 4-2-1v13l-2 6-12 17-3 3 1-4 10-15 3-7 1-8-3-8z" fill="#04BDF9"/>
<path transform="translate(1129,264)" d="m0 0 5 5 1 2v9h-1l-1-7-8 16-2-1 3-11 2-12z" fill="#08ACF3"/>
<path transform="translate(1737,264)" d="m0 0 3 1v4h-2v86h-1z" fill="#1A70DE"/>
<path transform="translate(878,333)" d="m0 0h2l3 8v17l-4 8h-3l3-4 1-3v-7l-2-4z" fill="#1878E1"/>
<path transform="translate(686,413)" d="m0 0 3 1-15 10-4 1v2l-5 3-14 4h-7v-2l16-4 16-8z" fill="#08AAF2"/>
<path transform="translate(258,353)" d="m0 0 2 1-6 5-7 8-7 12-4-1 8-14 12-10z" fill="#0E8BE7"/>
<path transform="translate(1494,281)" d="m0 0 6 5 4 2 9 14-2 4-3-3-7-12-7-8z" fill="#04BFF9"/>
<path transform="translate(180,340)" d="m0 0 3 1-2 1v25l1 6-4-1-1-2v-17l2-11z" fill="#0F90E8"/>
<path transform="translate(1798,434)" d="m0 0h18v1l-5 1h-8v2h15l-3 2h-13l-9-3v-2z" fill="#0E9DED"/>
<path transform="translate(154,327)" d="m0 0 1 4-1 23-4 4-2-3h2v-9l3-16z" fill="#0C98EB"/>
<path transform="translate(1123,288)" d="m0 0 1 2-6 14-9 17-2-1 1-5 13-25z" fill="#06B5F6"/>
<path transform="translate(1946,372)" d="m0 0h1v5l-5 8-1 3 2 1-4 4h-5l1-5z" fill="#1D60D8"/>
<path transform="translate(433,451)" d="m0 0 9 2h9l7-1 2 2-5 3h-13l-10-3z" fill="#1C64D9"/>
<path transform="translate(1666,438)" d="m0 0h6v4h-27l-2-3z" fill="#1A6EDD"/>
<path transform="translate(1735,330)" d="m0 0h1v24l-1 13-2 2v-18l1-20z" fill="#05BCF9"/>
<path transform="translate(327,470)" d="m0 0h1v21l-1 10-4 2 3-28z" fill="#1A75E0"/>
<path transform="translate(1296,393)" d="m0 0h1l-1 8-5 9-9 10-4 4h-2v2h-3v2l-2-1 5-5 7-6 9-13z" fill="#07AFF4"/>
<path transform="translate(1736,356)" d="m0 0h1v8l3-1v9l-2 7-2-2-4 4 3-14z" fill="#1B69DB"/>
<path transform="translate(1212,358)" d="m0 0 8 1 12 4 8 2 4 2-4 1-19-5-9-3z" fill="#0C99EA"/>
<path transform="translate(1250,435)" d="m0 0 3 1-10 3-24 2-2-2-6-2 4-1 13 1h13z" fill="#0A99EC"/>
<path transform="translate(1404,436)" d="m0 0 11 1h25l12-1-3 2-6 1-25 1v1h-6l-8-4z" fill="#0A9BEC"/>
<path transform="translate(718,366)" d="m0 0 1 3-4 11-4 8-7 10-1-3 11-20z" fill="#06B2F5"/>
<path transform="translate(278,343)" d="m0 0 13 3v1l-7 1 2 5v6l-2-3-3-5-2-2-12-1 4-2 7-1z" fill="#1E6ADC"/>
<path transform="translate(850,365)" d="m0 0h12v1l-11 2h-27v-2z" fill="#1E5ED7"/>
<path transform="translate(876,329)" d="m0 0 4 2 4 9v15h-1l-1-14-2-5v-3h-2v22l-2 2z" fill="#12B1F3"/>
<path transform="translate(1110,317)" d="m0 0 2 1-2 7-4 9h-2l-2 4-3 5-1-2 9-19z" fill="#1B66D9"/>
<path transform="translate(151,318)" d="m0 0h2l2 5-2-1-2 11-3 1-2 4-5 6h-2v2h-2l1-4 8-7 4-13z" fill="#1A6EDD"/>
<path transform="translate(466,393)" d="m0 0 4 2 6 2 3 5-2 2 1 5 1 2-2 2-7-14z" fill="#1B74E0"/>
<path transform="translate(400,337)" d="m0 0 7 1 9 4 5-1 7-4 3 1-12 7-5 1-9-6-5-1z" fill="#1E63DA"/>
<path transform="translate(383,274)" d="m0 0h2l-2 6-4 8 1 6-4-1-1-8 6-9z" fill="#0F88E6"/>
<path transform="translate(1738,333)" d="m0 0 2 2v28l-3 1z" fill="#1D5BD7"/>
<path transform="translate(364,243)" d="m0 0h1l-1 11-4 12-5 8h-3v-15h1l1 11 2-3h2l3-11z" fill="#1087E6"/>
<path transform="translate(1701,423)" d="m0 0 2 1-7 5-17 7h-3l1-3 17-7z" fill="#07AEF3"/>
<path transform="translate(891,295)" d="m0 0h10v2l3 1h-41v-1l25-1z" fill="#184AD2"/>
<path transform="translate(308,354)" d="m0 0h1v24l1 14-3-1-1-3 1-26z" fill="#1D64DA"/>
<path transform="translate(411,355)" d="m0 0h2l4 10-3 3-22 2-9-3v-2l10 2h12l10-1z" fill="#2075E2"/>
<path transform="translate(111,405)" d="m0 0h9l7 3v1h-23l4-2z" fill="#0C96EB"/>
<path transform="translate(1816,434)" d="m0 0h6l2 3-2 1h-19v-2z" fill="#1B52D8"/>
<path transform="translate(1481,421)" d="m0 0 7 2v2h-2v-2l-10 2-14 8-7 2 1-3 16-7 5-3z" fill="#05B9F8"/>
<path transform="translate(1672,436)" d="m0 0 4 1-10 2-22 1-4 1-2-4h26z" fill="#0A99EC"/>
<path transform="translate(355,378)" d="m0 0 4 2 5 4 10 6 10 3 8 1v1h-9l-10-3-11-6-7-7z" fill="#1765DD"/>
<path transform="translate(1622,353)" d="m0 0h1l2 19h2l2 7-5-4-4-13v-5z" fill="#1473DB"/>
<path transform="translate(1522,340)" d="m0 0h1v22l-1 6h-1l-1-10-2 4 1-9 2-5z" fill="#1564D0"/>
<path transform="translate(358,327)" d="m0 0h6v2l-9 4-9 5-2-1 10-8z" fill="#1870DE"/>
<path transform="translate(1e3 305)" d="m0 0 4 5 6 15 4 9 1 4-3-3-12-27z" fill="#09AAF2"/>
<path transform="translate(901,256)" d="m0 0 5 3 2 4h-2v22l-3 2 1-4v-19l-3-5z" fill="#13BCF7"/>
<path transform="translate(228,422)" d="m0 0h8l4 1v2l5 1-1 2h-3v2l-6-3v-2l-7-2z" fill="#0B91EA"/>
<path transform="translate(1295,352)" d="m0 0 3 1 3 6-1 23-1 6h-1v-27z" fill="#1579E1"/>
<path transform="translate(1284,341)" d="m0 0 9 5 4 5-2 5-3-3-6-8z" fill="#05B8F6"/>
<path transform="translate(1212,302)" d="m0 0h1l1 9h2l2-8 2-1-1 9 2 6-5-2-4-4-1-5z" fill="#08ABF2"/>
<path transform="translate(1222,291)" d="m0 0h10l5 1-1 2-11 3-2-3-3-2z" fill="#1469D5"/>
<path transform="translate(336,458)" d="m0 0 9 1 4 5 1 6h-2l-2-6-5-1-3-2 1-2z" fill="#1584E5"/>
<path transform="translate(607,348)" d="m0 0h1l1 38 1 4-3 1z" fill="#1D6BDD"/>
<path transform="translate(1387,333)" d="m0 0 1 4-1 7v16l-2-3-1-4v-8l2-11z" fill="#08A8F1"/>
<path transform="translate(2009,282)" d="m0 0h2l-2 5-13 18-1-3 11-16z" fill="#07B0F4"/>
<path transform="translate(1285,269)" d="m0 0 6 5 2 5-4-1-1 4h-2l-2-12z" fill="#07B0F4"/>
<path transform="translate(449,363)" d="m0 0h8v1l-5 1-1 4v13l-2 3-1-11-1-10z" fill="#1A46D7"/>
<path transform="translate(686,413)" d="m0 0 3 1-15 10-4 1v2l-9 2 4-3 13-7z" fill="#06B5F6"/>
<path transform="translate(1511,303)" d="m0 0 3 1 5 12v2h-2l-1 4-1-8-4-8z" fill="#1279DC"/>
<path transform="translate(990,272)" d="m0 0 3 1 6 13-1 2h-2l-6-13z" fill="#147FE2"/>
<path transform="translate(909,266)" d="m0 0 2 3 1 4v10l-2 8h-1z" fill="#08A8F1"/>
<path transform="translate(906,263)" d="m0 0 3 1 1 7v9h-1v-8h-2v9h-1z" fill="#1570DE"/>
<path transform="translate(1028,357)" d="m0 0 4 1 3 6 1 8-4-5-1-4h-2z" fill="#0C99E9"/>
<path transform="translate(1010,312)" d="m0 0 3 4 5 11-1 2-4-4-4-9z" fill="#0E7FD8"/>
<path transform="translate(710,298)" d="m0 0 3 1 4 7-1 4-3-1-3-8z" fill="#0F96EA"/>
<path transform="translate(904,424)" d="m0 0h2l-2 5-6 5-5 1h-10l4-2 12-2z" fill="#07AEF3"/>
<path transform="translate(1247,437)" d="m0 0 3 1-3 2-15 1-1 1-9-1v-1l21-2z" fill="#1B6BDC"/>
<path transform="translate(1248,438)" d="m0 0h2v2l3 1-7 1h-15l1-2 15-1z" fill="#1555CA"/>
<path transform="translate(779,434)" d="m0 0h27v1l-25 1 1 2h-6v-3z" fill="#0A9EED"/>
<path transform="translate(1715,408)" d="m0 0v3l-10 11-6 2 5-5z" fill="#06B5F6"/>
<path transform="translate(1016,328)" d="m0 0 3 1 4 9v4l-4-2-3-8z" fill="#0F6BCD"/>
<path transform="translate(641,296)" d="m0 0 9 2 2 5-8-1-3-2h4v-2z" fill="#04BEF9"/>
<path transform="translate(1420,294)" d="m0 0h12l9 2v3l-11-2-1-1-9-1z" fill="#0C95E9"/>
<path transform="translate(1737,264)" d="m0 0 3 1v4h-2v27h-1z" fill="#1571DE"/>
<path transform="translate(441,417)" d="m0 0 1 2-6 9-9 9v-3l9-10z" fill="#1B73E0"/>
<path transform="translate(1228,289)" d="m0 0 9 1 8 4-2 1-7-1-4-2-10-1v-1z" fill="#07AFF3"/>
<path transform="translate(1416,439)" d="m0 0h22v1l-10 1v1h-10v-2z" fill="#1678E0"/>
<path transform="translate(1270,426)" d="m0 0 2 1-16 8h-3l1-3z" fill="#05B7F7"/>
<path transform="translate(255,313)" d="m0 0h8l10 4v2l-5-1-7-3h-7z" fill="#1280E3"/>
<path transform="translate(1296,393)" d="m0 0h1l-1 8-5 9h-3l5-9z" fill="#08AAF2"/>
<path transform="translate(1517,357)" d="m0 0h1l-1 10-1 5h-2l-1 3 1-9 2-7z" fill="#06B0F4"/>
<path transform="translate(1505,293)" d="m0 0 4 2 4 7-2 4-2-1-3-9z" fill="#0A9FED"/>
<path transform="translate(1520,356)" d="m0 0h1v13h-2l-1 2v-9z" fill="#1A4AD7"/>
<path transform="translate(400,337)" d="m0 0 7 1 5 3 4 5-6-2-6-5h-4z" fill="#1D63D8"/>
<path transform="translate(151,318)" d="m0 0h2l2 5-2-1-1 8-4 2z" fill="#1972DF"/>
<path transform="translate(65,289)" d="m0 0 2 1-5 5-2 4-5 5-1 2-2-1 9-12z" fill="#61EFFE"/>
<path transform="translate(781,435)" d="m0 0h16l-2 2-13 1-3-2z" fill="#1578E0"/>
<path transform="translate(1402,302)" d="m0 0 2 1-14 14v-3l7-8z" fill="#1761DB"/>
<path transform="translate(1701,423)" d="m0 0 2 1-7 5-5 2-4-1 7-4z" fill="#0AA0EF"/>
<path transform="translate(1619,355)" d="m0 0h1l3 14 1 6-4-4-1-4z" fill="#08A5F0"/>
<path transform="translate(1227,364)" d="m0 0h11l6 3-4 1-13-3z" fill="#06B7F5"/>
<path transform="translate(1055,427)" d="m0 0v3l-3 4-6 2h-6v-1l9-3z" fill="#196BDB"/>
<path transform="translate(850,365)" d="m0 0h12v1l-13 2-9-1v-1z" fill="#1B6FDE"/>
<path transform="translate(705,292)" d="m0 0 4 1 2 5v5l-2-1-4-7z" fill="#0FB2F4"/>
<path transform="translate(134,283)" d="m0 0 6 5 4 5-1 3v-2l-4-2-5-6z" fill="#118AE6"/>
<path transform="translate(982,257)" d="m0 0 5 4 1 4-3 3-3-7z" fill="#07AFF2"/>
<path transform="translate(1792,433)" d="m0 0h19v1l-20 2-1-2z" fill="#04BDF9"/>
<path transform="translate(1479,423)" d="m0 0h7l-1 2-6 1-6 3-4-1z" fill="#1182E3"/>
<path transform="translate(1827,415)" d="m0 0h1l2 15-4 1z" fill="#1D59D7"/>
<path transform="translate(1722,398)" d="m0 0h2l-2 4-5 7-2-2z" fill="#07AFF4"/>
<path transform="translate(1519,369)" d="m0 0h2l-2 11-2 2v-10z" fill="#166EDF"/>
<path transform="translate(1264,304)" d="m0 0 9 1v3l-9-1z" fill="#1677E1"/>
<path transform="translate(1201,353)" d="m0 0 5 1 8 3-4 2-9-4z" fill="#04C2F9"/>
<path transform="translate(154,327)" d="m0 0 1 4v6l-3 7h-1l1-11z" fill="#1188E6"/>
<path transform="translate(1110,317)" d="m0 0 2 1-2 7-5 3 2-6z" fill="#1B68DA"/>
<path transform="translate(254,233)" d="m0 0 5 2 2 3v3l-4-2-3-3z" fill="#0B9DED"/>
<path transform="translate(1384,353)" d="m0 0 2 4 1 9-3-3-1-6z" fill="#1C6BDC"/>
<path transform="translate(273,319)" d="m0 0 9 1 2 1-1 4-10-5z" fill="#1183E4"/>
<path transform="translate(382,156)" d="m0 0 6 2 8 5-2 1-12-6z" fill="#02D0FB"/>
<path transform="translate(1443,438)" d="m0 0h6l-1 3h-10v-2z" fill="#1B5CD9"/>
<path transform="translate(1390,374)" d="m0 0 4 1 5 8-5-2-4-5z" fill="#04BFF9"/>
<path transform="translate(1286,282)" d="m0 0h2l-2 5-1 3h-2v3l-3 1 1-4z" fill="#08AAF2"/>
<path transform="translate(312,182)" d="m0 0h6l-2 2-12 6 1-3 5-2v-2z" fill="#1679E1"/>
</svg>
